<?xml version="1.0" standalone="no"?>
<!DOCTYPE svg PUBLIC "-//W3C//DTD SVG 20010904//EN"
 "http://www.w3.org/TR/2001/REC-SVG-20010904/DTD/svg10.dtd">
<svg version="1.0" xmlns="http://www.w3.org/2000/svg"
 width="1024.000000pt" height="1024.000000pt" viewBox="0 0 1024.000000 1024.000000"
 preserveAspectRatio="xMidYMid meet">

<g transform="translate(0.000000,1024.000000) scale(0.100000,-0.100000)"
fill="#000000" stroke="none">
<path d="M1847 9013 c-100 -104 -177 -294 -177 -437 0 -86 18 -155 58 -233 45
-84 93 -206 152 -383 119 -353 239 -585 454 -870 108 -144 226 -275 273 -301
25 -15 34 -15 83 -2 30 7 59 19 65 25 7 8 5 9 -5 6 -8 -3 -39 -11 -69 -19
l-54 -14 -96 101 c-177 185 -358 447 -471 679 -67 138 -165 389 -203 519 -15
49 -40 113 -57 143 -17 30 -30 57 -28 59 2 2 31 -18 64 -44 32 -26 86 -65 118
-87 33 -22 165 -120 295 -218 130 -99 387 -292 571 -430 184 -139 353 -271
376 -294 22 -24 45 -43 51 -43 16 0 45 -53 80 -145 17 -44 50 -129 73 -188 23
-60 39 -111 37 -113 -6 -6 -27 40 -81 176 -25 62 -53 124 -61 137 l-16 24 -57
-32 c-31 -17 -82 -48 -112 -69 -30 -20 -59 -39 -65 -41 -11 -4 -160 -101 -243
-157 -61 -42 -78 -65 -59 -81 12 -9 116 -60 432 -211 361 -172 637 -307 717
-350 51 -27 134 -70 183 -95 108 -53 223 -155 254 -225 18 -39 21 -66 21 -207
0 -91 5 -172 10 -185 13 -28 71 -63 154 -92 63 -21 66 -24 66 -52 0 -17 -21
-16 -107 2 l-33 6 0 -103 c0 -144 17 -471 31 -609 7 -63 12 -125 12 -137 -1
-13 3 -20 8 -17 5 3 9 11 9 19 0 7 16 55 36 107 20 51 45 120 55 153 15 51 18
55 18 27 1 -41 -14 -144 -41 -282 -11 -58 -25 -136 -32 -173 l-11 -68 -54 82
c-33 51 -57 77 -63 71 -6 -6 -5 -48 1 -113 6 -57 15 -176 21 -264 32 -490 146
-1367 204 -1580 8 -27 21 -85 31 -127 19 -90 24 -94 155 -125 61 -15 118 -18
300 -18 201 0 235 3 320 24 52 12 100 27 107 33 7 5 17 35 23 66 6 31 18 80
25 107 35 123 121 637 164 985 45 353 90 985 72 1003 -10 10 -44 -31 -85 -99
l-29 -49 -13 55 c-12 48 -34 183 -64 385 -5 32 -8 61 -6 62 2 2 10 -16 19 -39
56 -159 94 -252 104 -255 7 -3 14 12 17 39 11 76 37 791 31 816 -5 22 -10 24
-48 19 -23 -4 -54 -9 -69 -13 -21 -5 -28 -3 -28 8 0 20 21 38 43 38 30 0 139
50 167 77 25 23 25 27 30 211 3 103 11 198 17 212 32 72 116 148 270 244 80
49 461 241 1126 564 103 51 187 95 187 100 0 17 -58 61 -185 142 -71 46 -159
102 -195 125 -90 58 -129 77 -145 71 -16 -6 -40 -52 -90 -171 -62 -150 -75
-178 -80 -173 -3 2 14 56 36 119 60 168 110 322 106 326 -7 6 -29 -46 -81
-197 -29 -85 -72 -209 -95 -274 -23 -66 -38 -123 -33 -128 10 -10 143 263 212
434 23 56 24 57 49 43 38 -19 432 -270 459 -292 l24 -18 -259 -129 c-142 -71
-315 -155 -385 -187 -152 -70 -496 -245 -662 -338 -132 -73 -227 -156 -267
-231 -22 -42 -24 -59 -29 -238 -6 -219 4 -197 -100 -240 -124 -52 -152 -54
-640 -54 -502 0 -529 2 -672 62 -42 18 -80 40 -84 49 -4 9 -10 97 -13 196 -6
172 -7 182 -33 226 -15 25 -57 74 -95 108 -60 55 -106 81 -448 250 -209 104
-504 248 -655 319 -337 158 -390 185 -390 192 0 3 55 41 123 85 67 43 165 107
217 141 52 33 109 68 127 77 17 9 38 23 46 32 14 13 18 7 43 -58 46 -121 185
-441 196 -452 7 -7 8 1 3 25 -10 48 -173 527 -192 564 l-15 30 43 -34 c71 -54
95 -88 154 -220 30 -69 77 -161 103 -205 62 -105 71 -111 537 -366 106 -58
192 -99 208 -99 37 0 116 41 196 101 35 27 66 48 67 46 5 -5 -25 -187 -38
-230 -7 -24 -25 -49 -45 -65 -54 -41 -67 -75 -68 -177 0 -111 10 -131 123
-254 91 -100 225 -197 313 -227 45 -16 84 -19 239 -19 l185 0 65 34 c114 59
203 126 288 216 98 103 118 139 126 226 8 89 -5 124 -69 189 -54 55 -54 56
-85 182 -16 70 -30 130 -30 133 0 4 26 -16 58 -43 97 -83 162 -122 206 -122
53 0 178 61 433 210 299 175 291 168 355 302 30 62 72 155 94 207 40 96 67
132 151 199 23 17 49 32 57 32 10 0 13 6 10 15 -5 13 7 20 20 13 2 -2 15 9 28
24 13 14 46 43 73 64 240 182 365 277 515 394 279 217 576 441 649 490 37 25
90 63 117 85 80 64 79 64 62 30 -9 -16 -27 -42 -39 -56 -126 -139 -162 -196
-298 -474 -147 -301 -342 -583 -570 -824 -34 -36 -59 -67 -56 -70 13 -12 176
168 314 348 132 172 222 321 353 581 92 184 143 275 184 325 32 39 55 63 52
55 -3 -8 -20 -62 -37 -120 -88 -290 -145 -429 -239 -590 -165 -283 -451 -650
-506 -650 -11 0 -48 9 -80 20 -68 23 -69 23 -61 10 7 -12 110 -42 143 -42 76
0 435 471 584 766 52 104 99 227 150 395 22 75 71 208 108 296 90 212 100 244
100 324 0 94 -15 162 -52 245 -33 72 -118 209 -139 222 -8 5 -9 -22 -4 -103 5
-73 3 -123 -5 -152 -15 -58 -78 -119 -165 -160 -125 -58 -711 -297 -890 -361
-27 -10 -108 -42 -180 -70 -71 -28 -173 -66 -225 -85 -52 -18 -155 -56 -229
-84 -74 -28 -136 -51 -139 -51 -10 0 17 -45 135 -224 69 -105 146 -222 171
-261 25 -38 49 -75 54 -82 5 -6 5 -14 0 -17 -6 -3 -56 60 -112 142 -163 236
-192 273 -244 309 -26 18 -53 33 -60 33 -6 0 -3 -6 6 -13 10 -7 35 -24 57 -39
36 -26 126 -146 268 -358 l51 -76 -117 -53 c-64 -30 -190 -87 -281 -128 -91
-40 -199 -89 -240 -107 -41 -19 -127 -57 -190 -84 -284 -124 -467 -205 -491
-216 l-26 -13 24 86 c19 66 52 136 143 296 115 205 180 328 180 341 0 4 -26 4
-57 1 -32 -4 -146 -16 -253 -27 -107 -12 -205 -23 -216 -26 -18 -5 -25 -21
-43 -97 -12 -51 -28 -137 -36 -192 -16 -107 -46 -720 -44 -888 2 -170 8 -117
80 678 6 66 17 179 25 250 8 72 14 149 14 172 0 23 4 44 8 47 7 4 419 46 453
46 11 0 -73 -163 -181 -351 -83 -145 -103 -202 -185 -531 -71 -286 -84 -358
-67 -358 6 0 14 5 17 10 4 6 34 24 68 42 34 17 85 46 114 64 l52 33 6 -47 c15
-115 44 -217 94 -326 48 -107 46 -115 -62 -175 -81 -46 -164 -77 -297 -111
-173 -45 -197 -46 -340 -15 -206 45 -380 111 -459 173 -30 24 -26 49 24 158
42 91 60 154 75 267 7 45 12 82 13 83 1 0 62 -32 136 -73 73 -40 135 -72 136
-71 2 2 -10 50 -25 108 -16 58 -48 182 -73 275 -25 94 -53 190 -61 214 -9 24
-16 52 -16 61 0 24 -48 114 -192 358 -66 112 -118 205 -117 206 2 2 38 0 79
-5 41 -5 127 -13 190 -19 63 -5 134 -13 156 -16 l41 -6 7 -86 c4 -48 13 -132
21 -187 8 -55 21 -158 29 -230 63 -537 79 -661 88 -670 13 -13 5 166 -23 485
-33 389 -47 500 -74 585 -13 44 -25 90 -25 102 0 12 -4 24 -9 27 -11 7 -451
56 -503 56 -21 0 -38 -4 -38 -9 0 -5 72 -128 160 -274 101 -168 163 -282 171
-313 7 -27 16 -57 21 -66 5 -11 5 -18 -1 -18 -16 0 -625 259 -1106 470 -110
48 -210 91 -222 95 -13 3 -23 11 -23 16 0 14 45 79 179 258 110 146 119 156
179 184 l62 29 93 -73 c153 -122 339 -260 344 -255 3 3 -12 20 -33 38 -21 18
-75 65 -119 103 -121 106 -180 154 -209 169 l-27 14 43 6 c135 20 584 10 667
-15 32 -9 69 -37 135 -99 50 -47 86 -78 80 -70 -5 8 -33 44 -61 80 -62 80 -87
121 -144 230 -36 71 -129 232 -211 368 l-20 32 787 0 787 0 -24 -42 c-14 -24
-45 -77 -70 -118 -25 -41 -81 -140 -124 -220 -44 -80 -113 -190 -154 -245
-105 -139 -105 -142 1 -38 126 123 150 133 369 142 91 4 185 6 210 6 25 -1 93
-3 152 -5 60 -1 105 -6 102 -11 -3 -5 -12 -9 -19 -9 -8 0 -76 -54 -152 -119
-161 -139 -244 -215 -223 -205 25 12 239 173 323 242 43 36 94 73 112 82 l34
17 -62 14 c-42 9 -125 13 -251 13 -164 -1 -187 0 -171 12 10 8 22 14 26 14 4
0 17 19 29 43 12 23 52 83 89 132 37 50 76 104 86 120 11 17 47 66 81 110 56
73 70 85 160 134 178 96 413 221 418 221 9 0 -325 -621 -359 -665 -27 -35 -78
-51 -226 -69 -286 -36 -271 -33 -212 -35 75 -2 310 26 368 44 28 8 57 21 67
28 16 13 55 76 123 202 21 39 66 122 100 185 90 164 170 328 164 335 -12 11
-512 -257 -557 -299 -33 -31 -121 -143 -158 -202 -47 -75 -86 -134 -90 -134
-6 0 8 33 39 88 35 63 118 245 113 249 -2 2 -67 -18 -145 -43 -166 -55 -160
-50 -283 -254 -95 -158 -128 -207 -128 -188 0 8 4 18 9 24 5 5 39 68 76 139
38 72 85 155 105 185 21 30 47 74 59 98 l21 42 -814 0 c-922 0 -831 10 -771
-85 34 -53 131 -222 184 -319 18 -32 30 -60 27 -63 -4 -4 -39 47 -100 147 -15
25 -35 56 -45 70 -10 14 -40 58 -66 98 -26 40 -59 78 -73 86 -30 15 -158 47
-202 51 -15 1 -32 5 -38 9 -6 3 -2 -11 8 -31 10 -21 27 -58 37 -83 10 -25 31
-70 48 -100 35 -63 63 -127 42 -97 -97 145 -173 248 -207 283 -42 44 -163 114
-461 269 -88 45 -162 79 -164 74 -6 -9 303 -595 360 -685 38 -59 48 -64 195
-89 74 -13 282 -35 333 -35 9 0 17 5 17 10 0 6 -21 10 -48 10 -58 0 -287 26
-362 41 -30 6 -67 18 -81 26 -18 11 -66 91 -159 267 -73 138 -155 289 -181
336 -26 47 -45 87 -44 89 2 1 59 -26 127 -61 289 -152 415 -222 442 -247 15
-14 71 -87 124 -161 52 -74 103 -144 113 -155 10 -11 34 -47 54 -80 19 -33 49
-67 65 -75 26 -14 14 -15 -168 -16 -299 -2 -416 -30 -490 -115 -53 -61 -168
-212 -183 -240 -7 -13 -18 -30 -26 -37 -7 -7 -27 -33 -44 -58 -16 -24 -32 -44
-34 -44 -9 0 11 37 41 77 17 22 53 76 80 120 26 43 78 121 115 173 85 122 115
178 103 189 -11 10 -66 32 -339 135 -366 137 -994 388 -1249 498 -196 85 -235
136 -222 291 3 45 11 99 17 120 6 22 8 41 6 43 -2 3 -25 -17 -50 -43z m11 -68
c-5 -33 -7 -88 -4 -122 12 -137 40 -157 456 -331 123 -52 683 -275 780 -312
397 -148 566 -213 573 -219 4 -4 -43 -85 -105 -180 -62 -94 -135 -206 -163
-248 -27 -42 -53 -81 -56 -86 -9 -13 -1103 721 -1463 981 -54 40 -103 69 -108
66 -34 -21 203 -191 1059 -762 264 -176 484 -325 487 -330 9 -14 -104 -163
-118 -154 -12 7 -706 530 -921 693 -66 51 -177 133 -247 183 -237 171 -264
195 -300 266 -32 62 -33 70 -33 180 0 126 20 206 76 305 32 58 89 138 94 133
1 -1 -1 -30 -7 -63z m6581 -75 c63 -120 84 -204 79 -313 -7 -160 -49 -226
-221 -347 -43 -30 -180 -132 -305 -226 -233 -175 -265 -199 -418 -318 -162
-126 -208 -161 -354 -272 -149 -112 -208 -154 -215 -154 -2 0 -27 33 -54 74
l-51 74 48 28 c104 61 1161 787 1317 905 104 78 208 169 201 176 -8 9 -62 -26
-186 -119 -126 -95 -276 -200 -515 -363 -71 -49 -158 -108 -192 -132 -322
-222 -634 -433 -660 -446 l-31 -17 -73 113 c-175 271 -243 373 -262 394 -19
21 -19 21 9 36 16 8 112 45 214 82 421 152 1201 462 1380 547 69 32 137 71
152 85 53 51 76 165 55 283 l-8 45 25 -30 c14 -16 43 -64 65 -105z m-4264
-499 c101 -18 104 -22 284 -306 45 -71 89 -141 99 -154 l16 -24 -64 7 c-137
15 -196 34 -233 75 -31 35 -194 342 -212 400 -7 23 -6 24 31 17 22 -4 57 -11
79 -15z m2006 -4 c-19 -50 -162 -329 -196 -381 -25 -39 -44 -57 -67 -64 -30
-10 -169 -31 -225 -35 -12 -1 -25 -7 -27 -14 -6 -15 -36 -18 -36 -3 0 5 8 14
18 19 24 13 103 127 187 271 37 63 74 123 82 132 19 22 201 88 265 97 4 1 3
-10 -1 -22z m-1581 -482 c0 -8 -2 -15 -4 -15 -2 0 -6 7 -10 15 -3 8 -1 15 4
15 6 0 10 -7 10 -15z m-1130 -565 c47 -21 184 -82 305 -135 365 -162 883 -384
925 -396 36 -11 41 -16 59 -73 30 -93 73 -264 69 -276 -2 -6 -181 77 -398 183
-217 107 -458 224 -535 262 -254 124 -631 312 -664 333 -3 1 7 15 21 30 14 15
40 49 57 75 37 55 29 55 161 -3z m3461 -36 l47 -69 -36 -23 c-21 -12 -143 -75
-272 -139 -129 -64 -354 -175 -500 -247 -420 -208 -760 -369 -767 -362 -4 4
73 297 79 301 2 1 28 12 58 24 147 61 693 303 1060 470 146 66 269 119 275
117 5 -1 31 -34 56 -72z m-1657 -66 c-3 -35 -10 -67 -15 -72 -5 -6 -9 -6 -9
-1 0 20 22 135 27 135 2 0 1 -28 -3 -62z m-319 -39 c5 -52 4 -52 -5 -14 -21
87 -22 90 -10 79 6 -6 13 -35 15 -65z m-1314 -195 c635 -314 977 -481 1119
-546 36 -17 72 -33 80 -37 13 -7 44 -100 36 -109 -2 -1 -56 24 -121 58 -112
57 -149 70 -157 52 -3 -9 -119 -99 -159 -124 -14 -9 -43 -21 -65 -28 -37 -11
-43 -9 -104 23 -36 19 -92 48 -125 65 -33 18 -82 45 -110 62 -27 17 -81 46
-119 66 -91 47 -234 140 -258 167 -10 12 -62 109 -115 214 -53 106 -104 201
-115 212 -20 22 -23 31 -10 31 5 0 105 -48 223 -106z m1606 69 c-3 -10 -5 -4
-5 12 0 17 2 24 5 18 2 -7 2 -21 0 -30z m1531 -28 c-16 -30 -47 -94 -68 -142
-101 -233 -117 -260 -180 -303 -79 -54 -437 -258 -530 -302 -124 -59 -129 -59
-223 6 -45 30 -103 71 -128 90 l-47 35 -68 -41 c-38 -22 -89 -50 -114 -61 -25
-12 -48 -23 -52 -25 -7 -3 7 63 21 99 10 26 73 61 281 155 69 31 265 126 435
211 387 194 676 333 692 333 6 0 -2 -24 -19 -55z m13 -362 c-12 -20 -14 -14
-5 12 4 9 9 14 11 11 3 -2 0 -13 -6 -23z m-2277 -667 c-26 -57 -32 -80 -25
-98 18 -47 179 -138 311 -174 76 -21 149 -50 170 -69 8 -7 32 -22 53 -34 46
-26 147 -29 171 -6 8 8 19 15 25 15 20 0 60 23 55 31 -3 5 0 9 7 9 25 0 248
84 324 123 145 73 160 104 104 210 -17 32 -29 61 -26 63 2 3 23 -16 46 -42 41
-46 41 -48 41 -125 0 -43 -4 -89 -9 -103 -6 -13 -54 -70 -107 -126 -113 -117
-231 -201 -337 -237 -67 -24 -81 -25 -217 -21 -134 5 -150 7 -220 36 -41 18
-95 45 -119 61 -67 45 -238 219 -261 266 -43 90 -38 203 12 260 16 19 32 35
33 35 2 0 -12 -33 -31 -74z m1272 -868 c-3 -73 -11 -245 -16 -383 -6 -137 -13
-259 -16 -269 -6 -17 -7 -18 -16 -3 -10 18 -53 161 -118 392 -24 83 -51 174
-62 204 -10 30 -17 55 -16 56 2 1 45 27 95 59 77 48 117 68 152 75 2 1 1 -59
-3 -131z m-1194 60 c48 -27 90 -53 93 -58 12 -20 -168 -640 -182 -626 -10 9
-32 314 -39 528 l-7 217 24 -6 c13 -3 63 -28 111 -55z m294 -157 c20 -16 21
-20 9 -77 -20 -91 -96 -409 -99 -412 -2 -1 -6 23 -9 55 -9 98 -46 436 -52 475
l-5 37 67 -30 c38 -17 78 -38 89 -48z m606 23 c-5 -70 -42 -428 -50 -479 l-7
-50 -23 105 c-85 385 -83 374 -67 389 20 20 128 79 140 76 5 -1 9 -19 7 -41z
m-460 -54 c20 -6 46 -18 58 -28 20 -16 20 -19 5 -61 -8 -25 -27 -60 -41 -78
-26 -34 -79 -68 -93 -59 -11 7 -35 200 -28 220 7 18 45 21 99 6z m265 -7 c8
-19 -15 -214 -26 -226 -15 -16 -102 55 -126 104 -31 61 -32 95 -3 110 60 32
145 39 155 12z m-289 -997 c61 -76 62 -78 62 -139 0 -34 5 -165 12 -291 14
-262 15 -256 -74 -256 -77 0 -140 45 -172 122 -15 34 -77 580 -93 813 l-6 90
104 -131 c57 -72 132 -166 167 -208z m471 224 c-60 -677 -69 -761 -88 -797
-46 -90 -144 -134 -226 -103 l-26 10 7 292 c7 334 -1 304 110 429 33 37 97
114 144 172 47 58 85 105 86 104 1 -1 -2 -49 -7 -107z m325 -160 c-28 -467
-64 -783 -145 -1268 -60 -368 -75 -428 -113 -470 -43 -49 -145 -82 -251 -82
-30 0 -57 -4 -60 -10 -9 -15 140 -12 209 4 32 8 71 23 87 35 15 12 30 21 33
21 6 0 -24 -92 -34 -103 -4 -5 -48 -18 -96 -30 -125 -29 -497 -32 -619 -4 -97
23 -125 39 -125 73 0 14 -5 34 -11 45 -10 20 -10 20 28 1 67 -34 144 -52 226
-52 44 0 78 2 75 5 -3 3 -43 10 -88 15 -162 19 -238 62 -265 153 -34 112 -98
523 -145 922 -33 274 -87 951 -77 961 7 7 144 -227 157 -271 8 -25 15 -156 20
-355 11 -412 53 -772 109 -930 25 -71 25 -62 1 247 -12 141 -18 258 -15 261 3
3 5 0 5 -7 0 -15 79 -196 159 -364 34 -71 61 -135 61 -142 0 -28 -33 -96 -51
-105 -23 -13 -85 -13 -110 0 -24 14 -24 5 4 -49 37 -73 60 -84 190 -92 108 -7
317 -3 384 7 42 6 89 46 113 97 21 43 20 57 -4 37 -9 -6 -32 -12 -52 -13 -30
-1 -42 6 -70 35 -57 63 -56 68 44 276 49 103 102 216 118 252 15 36 32 70 37
75 10 11 4 -109 -19 -375 -17 -199 -17 -193 2 -150 32 73 54 183 85 420 26
206 32 295 38 555 9 342 9 343 79 456 21 35 51 86 66 112 15 27 29 47 31 45 2
-2 -3 -109 -11 -238z m-694 -1302 c14 0 47 3 74 8 44 6 50 5 67 -17 24 -31 24
-44 -2 -80 -14 -20 -29 -29 -48 -29 -33 0 -81 34 -81 57 0 9 -10 1 -23 -18
-17 -25 -31 -35 -55 -37 -37 -4 -57 9 -78 50 -13 25 -13 31 3 54 16 24 20 26
67 19 28 -3 62 -7 76 -7z m-284 -197 c-4 -5 7 -12 23 -16 30 -6 58 -31 48 -41
-10 -11 -56 5 -77 26 -24 24 -26 40 -4 40 8 0 13 -4 10 -9z m571 -36 c-28 -25
-67 -34 -67 -16 0 16 43 41 70 41 l25 -1 -28 -24z"/>
<path d="M3810 6809 c0 -16 104 -181 152 -241 36 -46 43 -46 209 -13 68 14
135 25 147 25 47 0 13 22 -148 96 -91 41 -194 89 -230 106 -79 36 -130 47
-130 27z m274 -118 c99 -44 184 -85 190 -91 7 -7 -1 -10 -26 -10 -20 0 -80 -9
-133 -20 -53 -11 -101 -20 -105 -20 -14 0 -147 189 -163 233 -7 20 -32 29 237
-92z"/>
<path d="M6265 6774 c-60 -24 -119 -48 -130 -53 -11 -6 -51 -24 -90 -41 -38
-17 -89 -42 -113 -56 -37 -22 -41 -27 -28 -40 8 -7 23 -14 34 -14 11 0 64 -9
117 -20 112 -23 165 -25 187 -7 33 27 188 251 188 272 0 15 -67 -2 -165 -41z
m109 -16 c-15 -23 -54 -81 -87 -126 l-60 -84 -51 6 c-28 4 -96 15 -151 25
l-100 18 80 37 c44 21 143 64 220 97 77 32 147 63 155 68 24 14 23 5 -6 -41z"/>
<path d="M1840 8167 c0 -4 30 -44 67 -89 54 -67 92 -132 189 -329 113 -228
224 -416 306 -516 18 -22 62 -77 98 -122 64 -82 257 -277 265 -269 3 2 -49 60
-115 129 -66 68 -120 127 -120 130 0 3 -30 42 -66 85 -112 134 -220 309 -341
554 -111 225 -181 337 -252 404 -17 17 -31 27 -31 23z"/>
<path d="M2330 7496 c23 -67 39 -97 135 -241 104 -157 308 -389 359 -408 15
-6 123 55 143 81 7 10 12 25 10 34 -1 10 -94 111 -207 224 -147 149 -228 222
-285 259 -44 29 -91 55 -103 59 -12 4 -22 11 -22 15 0 4 -11 13 -23 18 l-24
11 17 -52z m89 -27 c96 -53 150 -101 354 -314 l199 -206 -35 -27 c-19 -15 -53
-36 -75 -46 l-40 -18 -80 84 c-115 119 -183 206 -277 348 -106 161 -131 210
-108 210 3 0 31 -14 62 -31z"/>
<path d="M7892 7513 c13 -44 -342 -526 -451 -612 l-40 -32 -70 36 c-39 19 -71
41 -71 48 0 7 87 99 193 203 156 154 214 204 310 267 64 43 117 80 117 83 0
10 -138 -71 -205 -121 -91 -68 -435 -406 -435 -427 0 -20 36 -46 112 -82 l57
-27 27 23 c49 42 121 122 193 213 40 50 84 106 100 125 100 126 202 310 172
310 -6 0 -10 -3 -9 -7z"/>
<path d="M8207 7221 c-13 -14 -62 -84 -109 -156 -48 -71 -105 -157 -128 -190
-43 -61 -75 -124 -67 -131 7 -7 449 112 847 228 85 25 201 56 257 69 110 26
127 41 66 59 -30 8 -467 85 -795 139 -43 7 -49 6 -71 -18z m523 -76 c316 -53
415 -75 333 -75 -16 0 -126 -27 -244 -60 -412 -117 -894 -248 -898 -245 -2 2
35 59 81 127 47 68 117 171 156 229 l72 106 77 -12 c43 -7 233 -39 423 -70z"/>
<path d="M1710 7200 c-113 -21 -268 -50 -345 -65 -177 -32 -220 -44 -209 -55
5 -5 86 -32 179 -60 252 -76 571 -170 645 -190 36 -10 121 -34 189 -55 96 -28
126 -33 132 -24 9 16 25 -10 -158 262 l-154 227 -37 -1 c-20 -1 -129 -18 -242
-39z m277 8 c11 -13 71 -99 133 -193 62 -93 126 -186 142 -206 32 -42 35 -54
11 -44 -10 3 -198 58 -418 122 -220 64 -462 134 -538 157 l-139 40 99 17 c139
24 364 66 533 99 80 15 148 29 151 29 3 1 15 -9 26 -21z"/>
<path d="M2450 6654 c-74 -23 -297 -92 -495 -153 -198 -62 -418 -130 -490
-151 -71 -21 -269 -79 -440 -129 -339 -100 -435 -132 -435 -143 0 -5 39 -9 88
-9 48 -1 105 -3 127 -5 43 -3 431 -21 635 -29 496 -20 694 -26 1315 -35 385
-5 835 -12 1000 -14 289 -5 363 0 305 22 -16 6 -33 6 -47 -1 -29 -13 -1541 10
-2223 34 -350 12 -914 38 -1035 47 l-90 7 90 26 c505 149 925 274 1140 341
143 45 294 91 335 104 160 48 330 103 340 109 6 4 16 2 23 -3 7 -5 53 -26 102
-47 103 -43 115 -48 405 -183 118 -55 244 -113 280 -129 274 -127 533 -248
571 -269 26 -13 52 -24 58 -24 28 0 -8 25 -88 62 -47 22 -196 92 -331 156
-293 137 -546 253 -810 371 l-195 87 -135 -42z"/>
<path d="M7385 6589 c-132 -60 -280 -128 -330 -151 -49 -23 -127 -58 -172 -80
-45 -21 -84 -38 -87 -38 -2 0 -69 -31 -148 -68 -79 -38 -190 -91 -248 -117
-154 -72 -216 -114 -206 -140 5 -13 24 -15 138 -10 73 3 453 10 843 15 710 10
1003 18 1810 45 537 18 675 25 675 34 0 11 -107 47 -310 106 -254 73 -406 118
-560 165 -450 137 -1110 336 -1140 343 -19 5 -86 -22 -265 -104z m355 61 c30
-10 244 -75 475 -145 231 -69 476 -144 545 -165 171 -53 510 -152 755 -221 39
-11 74 -24 78 -28 4 -4 -104 -11 -240 -14 -136 -4 -358 -11 -493 -16 -422 -18
-501 -20 -1045 -31 -614 -13 -1609 -28 -1613 -25 -11 9 397 205 923 443 110
50 268 122 350 161 162 76 161 75 265 41z"/>
<path d="M3430 5711 c-114 -6 -140 -11 -290 -58 -91 -29 -282 -86 -425 -128
-143 -42 -310 -92 -372 -112 l-112 -35 -69 -91 c-149 -201 -692 -920 -793
-1052 -60 -77 -160 -207 -224 -290 -114 -148 -162 -227 -143 -234 5 -1 17 3
26 11 21 18 421 252 612 358 52 29 142 80 200 115 58 34 195 115 305 180 110
65 367 217 570 338 537 320 730 433 881 518 99 55 482 280 499 293 19 14 19
15 -12 48 -17 18 -51 58 -75 88 l-44 55 -205 1 c-112 0 -260 -2 -329 -5z m585
-91 c33 -44 64 -80 70 -80 5 -1 -8 -10 -30 -22 -22 -11 -116 -66 -210 -121
-93 -55 -242 -141 -330 -192 -209 -120 -537 -312 -750 -440 -93 -56 -260 -155
-370 -220 -110 -65 -231 -137 -270 -160 -125 -75 -357 -211 -500 -292 -155
-88 -275 -158 -468 -270 -71 -41 -130 -73 -131 -71 -2 1 95 131 216 288 120
157 393 516 606 799 313 416 394 517 421 528 19 8 186 60 370 115 185 54 410
123 501 151 189 59 218 62 590 65 l225 2 60 -80z"/>
<path d="M6183 5713 c-24 -17 -113 -136 -113 -152 0 -17 324 -209 895 -530
152 -86 240 -137 505 -293 107 -63 222 -130 255 -148 62 -34 267 -153 345
-200 25 -15 164 -96 310 -180 146 -84 364 -210 485 -280 199 -116 321 -183
335 -185 3 0 11 -4 18 -8 40 -26 -36 99 -142 232 -29 36 -97 125 -151 196
-135 178 -340 441 -428 550 -67 84 -166 212 -410 530 -55 72 -107 135 -116
141 -22 17 -514 170 -946 294 -100 29 -101 29 -465 35 -201 4 -370 3 -377 -2z
m1047 -110 c428 -131 722 -223 732 -229 5 -3 41 -49 81 -102 94 -126 460 -597
585 -752 16 -19 118 -152 227 -295 108 -143 208 -271 220 -285 32 -35 125
-171 125 -183 0 -6 -8 -3 -17 5 -10 8 -99 61 -198 118 -99 57 -227 131 -285
165 -165 98 -524 306 -770 448 -124 71 -342 198 -485 282 -143 84 -397 230
-565 325 -276 157 -422 241 -697 401 -51 30 -92 57 -93 60 0 4 23 37 52 74
l52 67 371 -5 370 -4 295 -90z"/>
<path d="M6070 4963 c0 -10 6 -27 14 -38 7 -11 54 -102 105 -202 50 -100 127
-246 170 -325 43 -79 136 -251 206 -383 70 -132 145 -271 165 -310 21 -38 78
-146 128 -240 264 -497 540 -986 560 -993 7 -2 12 7 12 25 0 15 -43 291 -96
613 -52 322 -113 690 -134 818 -21 128 -43 239 -50 248 -8 8 -173 135 -369
281 -196 146 -390 292 -431 323 -78 59 -246 180 -267 194 -9 5 -13 1 -13 -11z
m83 -61 c382 -281 972 -724 983 -738 7 -8 19 -65 29 -127 9 -62 32 -204 50
-317 18 -113 54 -333 80 -490 88 -545 114 -695 120 -712 13 -33 -12 -18 -26
15 -7 17 -43 84 -80 147 -85 147 -396 721 -619 1140 -95 179 -234 440 -310
580 -75 140 -165 311 -200 380 -34 69 -69 133 -78 143 -25 28 -5 20 51 -21z"/>
<path d="M4070 4909 c-36 -28 -268 -203 -517 -390 -249 -187 -455 -344 -459
-350 -6 -11 -195 -1122 -239 -1409 -46 -296 -42 -325 26 -203 24 43 46 83 48
88 2 6 21 39 41 75 115 200 660 1211 855 1585 68 132 161 307 285 540 70 132
63 144 -40 64z m53 -6 c-11 -15 -53 -91 -93 -168 -40 -77 -90 -171 -110 -210
-21 -38 -108 -205 -195 -370 -176 -335 -336 -632 -600 -1115 -98 -179 -201
-368 -229 -420 -29 -55 -52 -88 -54 -78 -3 14 252 1569 264 1608 2 8 201 162
442 342 240 181 471 354 512 387 41 32 77 57 79 55 2 -1 -6 -15 -16 -31z"/>
</g>
</svg>
